<?xml version="1.0" encoding="utf-8"?>
<!-- Svg Vector Icons : http://www.onlinewebfonts.com/icon -->
<!DOCTYPE svg PUBLIC "-//W3C//DTD SVG 1.1//EN" "http://www.w3.org/Graphics/SVG/1.1/DTD/svg11.dtd">
<svg version="1.1" xmlns="http://www.w3.org/2000/svg" xmlns:xlink="http://www.w3.org/1999/xlink" x="0px" y="0px" viewBox="0 0 1000 1000" enable-background="new 0 0 1000 1000" xml:space="preserve">
<metadata> Svg Vector Icons : http://www.onlinewebfonts.com/icon </metadata>
<g><path d="M500,370.8c35.5,0,64.5-29.1,64.5-64.6s-29-64.6-64.5-64.6c-35.5,0-64.5,29.1-64.5,64.6S464.5,370.8,500,370.8L500,370.8z M500,758.3c35.5,0,64.5-29.1,64.5-64.6V500c0-35.5-29-64.6-64.5-64.6c-35.5,0-64.5,29.1-64.5,64.6v193.8C435.5,729.3,464.5,758.3,500,758.3L500,758.3z M500,990.9c270.1,0,490-220.3,490-490.9S770.1,9.1,500,9.1S10,229.4,10,500S229.9,990.9,500,990.9L500,990.9z M500,80.2c231.1,0,419.1,188.3,419.1,419.8c0,231.5-187.9,419.8-419.1,419.8C268.9,919.8,80.9,731.6,80.9,500C80.9,268.4,268.9,80.2,500,80.2L500,80.2z"/></g>
</svg>