<?xml version="1.0" encoding="utf-8"?>
<!-- Svg Vector Icons : http://www.onlinewebfonts.com/icon -->
<!DOCTYPE svg PUBLIC "-//W3C//DTD SVG 1.1//EN" "http://www.w3.org/Graphics/SVG/1.1/DTD/svg11.dtd">
<svg version="1.1" xmlns="http://www.w3.org/2000/svg" xmlns:xlink="http://www.w3.org/1999/xlink" x="0px" y="0px" viewBox="0 0 1000 1000" enable-background="new 0 0 1000 1000" xml:space="preserve">
<metadata> Svg Vector Icons : http://www.onlinewebfonts.com/icon </metadata>
<g><path d="M500,990C229.8,990,10,770.2,10,500S229.8,10,500,10s490,219.8,490,490c0,161.8-79.8,313.1-213.5,404.6c-18.6,12.7-43.9,8-56.6-10.6c-12.7-18.6-8-43.9,10.6-56.6C842,761,908.6,634.9,908.6,499.9c0-225.3-183.3-408.6-408.6-408.6S91.4,274.7,91.4,500S274.7,908.6,500,908.6c22.5,0,40.7,18.2,40.7,40.7S522.5,990,500,990z M730.6,540.7H269.4c-22.5,0-40.7-18.2-40.7-40.7s18.2-40.7,40.7-40.7h461.2c22.5,0,40.7,18.2,40.7,40.7S753.1,540.7,730.6,540.7z M500,771.3c-22.5,0-40.7-18.2-40.7-40.7V269.4c0-22.5,18.2-40.7,40.7-40.7s40.7,18.2,40.7,40.7v461.2C540.7,753.1,522.5,771.3,500,771.3z"/></g>
</svg>