<?xml version="1.0" encoding="utf-8"?>
<!-- Svg Vector Icons : http://www.onlinewebfonts.com/icon -->
<!DOCTYPE svg PUBLIC "-//W3C//DTD SVG 1.1//EN" "http://www.w3.org/Graphics/SVG/1.1/DTD/svg11.dtd">
<svg version="1.1" xmlns="http://www.w3.org/2000/svg" xmlns:xlink="http://www.w3.org/1999/xlink" x="0px" y="0px" viewBox="0 0 1000 1000" enable-background="new 0 0 1000 1000" xml:space="preserve">
<metadata> Svg Vector Icons : http://www.onlinewebfonts.com/icon </metadata>
<g><g><path d="M981.1,797.3C981.1,797.3,981.1,797.3,981.1,797.3L683.8,500L981,202.7c0,0,0,0,0,0c3.2-3.2,5.5-6.9,7-10.9c4.1-10.9,1.7-23.6-7-32.4L840.6,18.9c-8.8-8.8-21.5-11.1-32.4-7c-4,1.5-7.7,3.8-10.9,7c0,0,0,0,0,0L500,316.2L202.7,18.9c0,0,0,0,0,0c-3.2-3.2-6.9-5.5-10.9-7c-10.9-4.1-23.6-1.7-32.4,7L18.9,159.4c-8.8,8.8-11.1,21.5-7,32.4c1.5,4,3.8,7.7,7,10.9c0,0,0,0,0,0L316.2,500L18.9,797.3c0,0,0,0,0,0c-3.2,3.2-5.5,6.9-7,10.9c-4.1,10.9-1.7,23.6,7,32.4l140.4,140.4c8.8,8.8,21.5,11.1,32.4,7c4-1.5,7.7-3.8,10.9-7c0,0,0,0,0,0L500,683.7l297.3,297.3c0,0,0,0,0,0c3.2,3.2,6.9,5.5,10.9,7c10.9,4.1,23.6,1.7,32.4-7L981,840.6c8.8-8.8,11.1-21.5,7-32.4C986.6,804.3,984.3,800.5,981.1,797.3z"/></g><g></g><g></g><g></g><g></g><g></g><g></g><g></g><g></g><g></g><g></g><g></g><g></g><g></g><g></g><g></g></g>
</svg>