<?xml version="1.0" encoding="utf-8"?>
<!-- Svg Vector Icons : http://www.onlinewebfonts.com/icon -->
<!DOCTYPE svg PUBLIC "-//W3C//DTD SVG 1.1//EN" "http://www.w3.org/Graphics/SVG/1.1/DTD/svg11.dtd">
<svg version="1.1" xmlns="http://www.w3.org/2000/svg" xmlns:xlink="http://www.w3.org/1999/xlink" x="0px" y="0px" viewBox="0 0 1000 1000" enable-background="new 0 0 1000 1000" xml:space="preserve">
<metadata> Svg Vector Icons : http://www.onlinewebfonts.com/icon </metadata>
<g><path d="M279.3,720.7c6,6,13.8,9,21.7,9c7.8,0,15.7-3,21.7-9L500,543.3l177.4,177.4c6,6,13.8,9,21.7,9s15.7-3,21.7-9c12-12,12-31.3,0-43.3L543.3,500l177.4-177.4c12-12,12-31.3,0-43.3c-12-12-31.3-12-43.3,0L500,456.7L322.6,279.3c-12-12-31.3-12-43.3,0s-12,31.3,0,43.3L456.7,500L279.3,677.4C267.3,689.4,267.3,708.8,279.3,720.7z"/><path d="M500,990c130.9,0,253.9-51,346.5-143.5C939,753.9,990,630.9,990,500s-51-253.9-143.5-346.5C753.9,61,630.9,10,500,10S246.1,61,153.5,153.5C61,246.1,10,369.1,10,500s51,253.9,143.5,346.5C246.1,939,369.1,990,500,990z M196.8,196.8c81-81,188.6-125.6,303.2-125.6s222.2,44.6,303.2,125.6c81,81,125.6,188.6,125.6,303.2s-44.6,222.2-125.6,303.2c-81,81-188.6,125.6-303.2,125.6s-222.2-44.6-303.2-125.6c-81-81-125.6-188.6-125.6-303.2S115.9,277.8,196.8,196.8z"/></g>
</svg>