<?xml version="1.0" encoding="utf-8"?>
<!-- Svg Vector Icons : http://www.onlinewebfonts.com/icon -->
<!DOCTYPE svg PUBLIC "-//W3C//DTD SVG 1.1//EN" "http://www.w3.org/Graphics/SVG/1.1/DTD/svg11.dtd">
<svg version="1.1" xmlns="http://www.w3.org/2000/svg" xmlns:xlink="http://www.w3.org/1999/xlink" x="0px" y="0px" viewBox="0 0 1000 1000" enable-background="new 0 0 1000 1000" xml:space="preserve">
<metadata> Svg Vector Icons : http://www.onlinewebfonts.com/icon </metadata>
<g><path d="M87.4,938.4h825.3V990H87.4V938.4L87.4,938.4z M402.4,834c1.3-1.1,3.5-3.2,6.6-6.6c0-0.1,0-0.1,0-0.2l374.8-374.8l-34.9-34.9L400,766.5l-4.6,3.9c-37.2-115.1-128-205.9-243.1-243.1l3.9-4.7L600,78.8l243.8,243.8l-0.2,0.2l34.9,34.9l34.1-34.1L599.1,10L94.6,514.5c0,0,0,0,0,0l-0.4,0.5l-6.8,6.8c0,0,0.2,0.1,0.5,0.2l-0.5,0.5v312.8h313.8L402.4,834L402.4,834z M138.9,783.7V577.2c97.3,32.4,174.2,109.2,206.6,206.5H138.9L138.9,783.7z"/></g>
</svg>